<svg xmlns="http://www.w3.org/2000/svg" viewBox="0 0 24 24" fill="none" stroke="#ffffff" stroke-width="1.5" stroke-linecap="round" stroke-linejoin="round">
  <path d="M12 2.5c-1.5 0-2.8.5-3.8 1.3C7.2 4.6 6.5 5.8 6.2 7.2c-.5-.2-1-.3-1.5-.3C3.2 6.9 2 8.1 2 9.6c0 1 .5 1.8 1.2 2.3-.5.7-.7 1.5-.7 2.4 0 2 1.4 3.6 3.2 3.9.3 1.5 1.6 2.6 3.1 2.6.5 0 1-.1 1.4-.4.5.6 1.2 1.1 2 1.1" />
  <path d="M12 2.5c1.5 0 2.8.5 3.8 1.3.9.8 1.6 2 1.9 3.4.5-.2 1-.3 1.5-.3 1.5 0 2.7 1.2 2.7 2.7 0 1-.5 1.8-1.2 2.3.5.7.7 1.5.7 2.4 0 2-1.4 3.6-3.2 3.9-.3 1.5-1.6 2.6-3.1 2.6-.5 0-1-.1-1.4-.4-.5.6-1.2 1.1-2 1.1" />
  <path d="M12 2.5v19" />
  <path d="M8 8.5c1.3 0 2.5.5 3.5 1.5" />
  <path d="M16 8.5c-1.3 0-2.5.5-3.5 1.5" />
  <path d="M7 14c1.5 0 3 .7 4 2" />
  <path d="M17 14c-1.5 0-3 .7-4 2" />
</svg>
